<svg width="1200" height="630" viewBox="0 0 680 357" xmlns="http://www.w3.org/2000/svg">
<defs>
<linearGradient id="gB" x1="0" y1="0" x2="1" y2="1">
<stop offset="0" stop-color="#4f7cff"/><stop offset="0.5" stop-color="#00e0c6"/><stop offset="1" stop-color="#a855f7"/>
</linearGradient>
</defs>
<rect width="680" height="357" fill="#0b0d17"/>
<rect width="680" height="357" fill="#06070d" opacity="0.4"/>
<g opacity="0.85">
<line x1="470" y1="90" x2="560" y2="60" stroke="#4f7cff" stroke-width="0.7"/>
<line x1="470" y1="90" x2="560" y2="150" stroke="#4f7cff" stroke-width="0.7"/>
<line x1="470" y1="90" x2="520" y2="200" stroke="#00e0c6" stroke-width="0.6"/>
<line x1="560" y1="60" x2="640" y2="110" stroke="#00e0c6" stroke-width="0.7"/>
<line x1="560" y1="150" x2="640" y2="110" stroke="#00e0c6" stroke-width="0.7"/>
<line x1="560" y1="150" x2="600" y2="240" stroke="#a855f7" stroke-width="0.6"/>
<line x1="520" y1="200" x2="600" y2="240" stroke="#a855f7" stroke-width="0.6"/>
<line x1="640" y1="110" x2="600" y2="240" stroke="#a855f7" stroke-width="0.5"/>
<line x1="520" y1="200" x2="560" y2="150" stroke="#00e0c6" stroke-width="0.5"/>
<circle cx="470" cy="90" r="5" fill="#4f7cff"/>
<circle cx="560" cy="60" r="4" fill="#4f7cff"/>
<circle cx="560" cy="150" r="6" fill="#00e0c6"/>
<circle cx="520" cy="200" r="4" fill="#00e0c6"/>
<circle cx="640" cy="110" r="5" fill="#00e0c6"/>
<circle cx="600" cy="240" r="5" fill="#a855f7"/>
</g>
<g transform="translate(56,52)">
<rect x="0" y="0" width="11" height="11" rx="2.5" fill="url(#gB)"/>
<text x="20" y="10" font-family="'Segoe UI','Yu Gothic UI',Arial,sans-serif" font-size="14" font-weight="700" letter-spacing="2" fill="#e8eaf2">FURILAN<tspan fill="#00e0c6">.</tspan></text>
</g>
<text x="56" y="160" font-family="'Yu Gothic UI','Yu Gothic','Meiryo','Noto Sans JP',sans-serif" font-size="40" font-weight="900" letter-spacing="2" fill="#e8eaf2">株式会社</text>
<text x="56" y="212" font-family="'Yu Gothic UI','Yu Gothic','Meiryo','Noto Sans JP',sans-serif" font-size="40" font-weight="900" letter-spacing="2" fill="url(#gB)">フリラン</text>
<rect x="58" y="234" width="40" height="3" rx="1.5" fill="url(#gB)"/>
<text x="56" y="266" font-family="'Yu Gothic UI','Yu Gothic','Meiryo','Noto Sans JP',sans-serif" font-size="15" font-weight="500" letter-spacing="1" fill="#9aa0b5">AIエージェント開発 / SES / 自社サービス開発</text>
<text x="56" y="292" font-family="'Yu Gothic UI','Yu Gothic','Meiryo','Noto Sans JP',sans-serif" font-size="13" font-weight="400" letter-spacing="0.5" fill="#6b7186">テクノロジーで、未来を実装する。</text>
</svg>
